<?xml version="1.0" standalone="no"?>
<!DOCTYPE svg PUBLIC "-//W3C//DTD SVG 20010904//EN"
 "http://www.w3.org/TR/2001/REC-SVG-20010904/DTD/svg10.dtd">
<svg version="1.0" xmlns="http://www.w3.org/2000/svg"
 width="540.000000pt" height="552.000000pt" viewBox="0 0 540.000000 552.000000"
 preserveAspectRatio="xMidYMid meet">

<g transform="translate(0.000000,552.000000) scale(0.100000,-0.100000)"
fill="#000000" stroke="none">
<path d="M3539 5013 c0 -11 -3 -13 -6 -5 -5 13 -53 17 -53 4 0 -5 -13 -7 -28
-4 -16 2 -51 -7 -84 -22 -48 -22 -78 -32 -110 -35 -13 -2 -95 -75 -131 -119
-23 -28 -36 -51 -32 -61 3 -8 3 -12 -1 -8 -16 16 -91 -184 -105 -283 -5 -35
-13 -67 -18 -70 -16 -10 -19 -98 -4 -113 13 -13 12 -16 -16 -22 -17 -3 -40
-18 -51 -32 -33 -42 -23 -3 15 61 28 46 33 61 24 72 -19 23 -36 16 -53 -21
-13 -28 -16 -56 -11 -148 2 -63 7 -122 11 -131 9 -22 24 -10 24 20 0 14 6 24
14 24 18 0 18 -49 0 -75 -18 -25 -18 -27 6 -53 31 -33 60 -29 60 8 0 28 -2 30
-21 20 -20 -11 -20 -11 -4 21 12 22 15 44 11 70 -4 26 0 52 11 81 17 41 18 68
10 213 -2 34 1 40 19 43 16 2 21 10 20 28 0 13 -7 24 -13 24 -7 0 -13 7 -13
16 0 10 6 14 14 11 8 -3 13 1 12 11 0 9 8 17 19 19 11 1 14 0 8 -3 -18 -8 -16
-25 2 -18 9 4 15 0 15 -10 0 -19 20 -22 21 -3 0 6 4 2 9 -10 l9 -22 40 22 c41
22 54 45 66 115 4 22 2 31 -5 27 -5 -3 -10 -1 -10 4 0 6 6 11 13 11 6 0 12 13
13 30 1 16 -3 27 -7 24 -21 -12 -7 15 20 40 19 19 43 30 68 32 81 8 419 11
428 3 6 -4 40 -14 76 -23 105 -24 174 -54 222 -96 49 -44 55 -61 63 -185 3
-44 12 -99 20 -123 8 -23 14 -49 14 -57 0 -8 5 -15 10 -15 16 0 11 129 -9 221
-33 148 -75 234 -157 317 -40 40 -76 72 -80 71 -5 -1 -48 17 -97 39 -48 23
-94 42 -102 42 -8 0 -15 5 -15 11 0 6 -6 9 -12 6 -7 -2 -27 2 -45 10 -47 19
-93 17 -94 -4z m68 1 c-3 -3 -12 -4 -19 -1 -8 3 -5 6 6 6 11 1 17 -2 13 -5z
m-397 -284 c0 -5 -5 -10 -11 -10 -5 0 -7 5 -4 10 3 6 8 10 11 10 2 0 4 -4 4
-10z m-80 -130 c0 -11 -5 -20 -11 -20 -5 0 -7 5 -3 12 5 8 2 9 -9 5 -17 -6
-23 4 -10 16 13 14 33 6 33 -13z m40 0 c0 -5 -4 -10 -10 -10 -5 0 -10 5 -10
10 0 6 5 10 10 10 6 0 10 -4 10 -10z"/>
<path d="M3368 4637 c-25 -23 -55 -62 -67 -86 l-20 -43 27 -29 c24 -25 34 -29
84 -29 43 0 58 -4 58 -14 0 -21 -28 -27 -71 -16 -32 9 -45 7 -77 -9 -52 -27
-147 -133 -165 -184 -19 -57 -10 -146 13 -132 12 8 13 -7 1 -21 -5 -5 -14 -26
-21 -47 -6 -20 -15 -35 -20 -32 -13 8 -32 -56 -20 -70 12 -14 -12 -40 -24 -27
-4 4 -5 -9 -1 -28 12 -66 0 -160 -21 -160 -8 0 -14 -4 -14 -10 0 -5 7 -10 15
-10 8 0 15 -4 15 -10 0 -5 -6 -9 -12 -7 -8 1 -12 -6 -10 -16 3 -15 0 -17 -17
-8 -28 15 -28 15 -35 -24 -4 -19 -11 -35 -16 -35 -14 0 -40 55 -40 84 0 30
-16 43 -22 18 -3 -10 14 -60 38 -112 51 -109 54 -125 20 -116 -25 6 -35 -7
-37 -47 0 -15 -5 -10 -15 18 -8 22 -19 44 -24 49 -6 6 -10 25 -10 43 0 36 -27
113 -40 113 -5 0 -12 -10 -16 -22 -3 -11 -41 -55 -84 -97 -94 -93 -117 -111
-124 -104 -3 4 -6 1 -6 -6 0 -7 -4 -10 -9 -7 -13 8 -42 -4 -35 -15 3 -5 -3
-12 -13 -15 -10 -3 -29 -11 -43 -17 -28 -13 -80 -16 -80 -6 0 12 -41 -3 -47
-17 -3 -8 -18 -14 -34 -14 -25 0 -33 -8 -31 -31 1 -4 -17 -11 -38 -17 -29 -7
-40 -7 -40 2 0 7 -3 7 -8 1 -4 -5 -13 -10 -19 -11 -37 -3 -42 -5 -39 -16 1 -7
1 -10 -1 -5 -8 12 -31 8 -65 -13 -18 -11 -40 -20 -50 -20 -9 0 -18 -5 -20 -10
-2 -6 -13 -12 -25 -13 -14 -1 -24 -10 -28 -24 -5 -20 -10 -22 -33 -16 -23 5
-25 4 -15 -8 10 -12 6 -17 -20 -27 -18 -8 -41 -18 -52 -24 -67 -38 -70 -38
-73 -23 -4 18 -25 19 -54 4 -21 -11 -21 -12 8 -25 27 -11 24 -12 -32 -7 -50 5
-63 2 -79 -13 -18 -18 -19 -18 -12 0 19 50 -101 -42 -142 -109 -42 -69 -83
-184 -77 -211 4 -14 -2 -38 -15 -61 -15 -26 -19 -47 -15 -72 5 -34 -20 -93
-48 -114 -7 -5 -5 -12 8 -22 16 -12 14 -41 -3 -31 -4 3 -11 2 -16 -2 -13 -9
-48 -85 -37 -78 5 3 9 -2 9 -10 0 -8 -6 -13 -14 -10 -8 3 -14 -3 -15 -17 0
-12 -2 -28 -2 -35 -1 -7 -6 -16 -11 -20 -15 -10 -66 -133 -59 -143 3 -5 1 -9
-4 -9 -10 0 -52 -91 -52 -112 0 -16 39 32 40 48 0 12 30 29 30 17 0 -3 -15
-38 -34 -77 -19 -39 -41 -87 -50 -106 -12 -25 -15 -28 -11 -10 3 18 0 15 -12
-10 -9 -19 -17 -55 -19 -80 -1 -25 -10 -65 -19 -90 -40 -108 -105 -343 -119
-430 -44 -277 -47 -794 -6 -985 30 -139 39 -164 82 -205 l42 -40 1182 0 c872
0 1190 3 1211 12 15 6 33 12 38 13 6 1 12 3 15 4 3 1 16 5 30 7 14 2 39 20 57
39 18 20 46 38 64 42 19 3 34 13 36 25 6 22 -4 19 73 24 56 5 68 2 88 -16 12
-11 22 -28 23 -38 0 -9 1 -37 2 -62 l2 -45 348 -3 c191 -1 347 1 347 5 0 5 -5
28 -11 52 -5 25 -14 78 -19 118 -14 108 -38 181 -67 206 -15 12 -38 33 -52 46
l-26 23 32 -6 c32 -7 32 -7 23 23 -4 17 -11 35 -15 41 -4 6 3 31 16 56 31 66
24 156 -21 244 -29 57 -33 75 -33 140 0 45 6 89 15 111 36 85 33 145 -16 252
-15 32 -22 56 -17 52 20 -11 34 78 27 171 -3 51 -1 145 4 210 6 66 11 236 11
379 0 290 -9 362 -61 464 -37 74 -50 83 -39 28 4 -23 8 -51 8 -62 0 -18 -1
-18 -13 4 -13 23 -13 23 -18 3 -3 -11 -1 -25 4 -30 6 -6 6 -12 -1 -16 -6 -4
-15 4 -21 18 -10 28 -26 34 -33 14 -2 -7 -2 -3 0 10 3 19 -1 22 -26 22 -23 0
-28 4 -24 19 3 12 -2 20 -16 24 -18 4 -21 1 -21 -24 0 -16 -5 -29 -12 -29 -6
0 -8 -3 -5 -7 4 -3 2 -12 -5 -20 -6 -7 -8 -17 -4 -20 4 -4 11 -1 15 6 12 19
24 -4 16 -29 -4 -12 -12 -17 -22 -13 -11 4 -14 1 -11 -13 3 -14 11 -18 31 -17
29 2 37 -14 12 -23 -22 -9 -18 -41 5 -54 25 -13 27 -32 3 -23 -16 5 -16 4 1
-9 14 -11 17 -23 14 -54 -3 -23 1 -50 9 -67 9 -18 10 -33 5 -45 -5 -9 -7 -23
-4 -31 3 -8 -1 -12 -9 -8 -8 2 -13 11 -11 18 7 30 -9 79 -26 79 -9 0 -23 10
-31 21 -12 20 -11 21 8 16 24 -6 29 14 7 32 -18 15 -42 -13 -38 -45 3 -18 -1
-24 -17 -24 -14 0 -19 5 -15 15 4 8 1 15 -6 15 -9 0 -11 -11 -7 -34 5 -29 3
-33 -13 -29 -20 5 -36 33 -20 33 6 0 10 7 10 15 0 8 -3 15 -7 15 -5 0 -10 66
-12 148 -2 81 -5 161 -7 177 -1 17 -3 41 -4 55 -1 21 -3 22 -9 7 -4 -10 -11
-19 -16 -19 -6 0 -19 -7 -30 -14 -17 -12 -18 -18 -8 -45 14 -35 8 -53 -13 -45
-8 3 -14 1 -14 -4 0 -6 7 -10 15 -10 8 0 16 -10 16 -22 4 -57 -2 -165 -10
-195 -6 -20 -6 -46 0 -66 12 -41 12 -40 -6 -33 -8 3 -15 1 -15 -4 0 -6 5 -10
11 -10 7 0 9 -10 7 -25 -3 -14 -1 -25 3 -25 5 0 9 -21 8 -47 0 -33 -3 -42 -8
-29 -9 25 -20 9 -16 -24 4 -44 5 -45 16 -30 9 12 9 11 3 -5 -4 -11 -8 -39 -8
-63 -1 -23 -5 -42 -9 -42 -5 0 -5 -6 -1 -13 6 -9 5 -9 -7 0 -10 8 -14 27 -13
53 1 22 -1 42 -5 44 -3 2 -7 93 -9 203 -1 109 -4 214 -6 233 -5 45 -34 257
-50 366 -1 9 -8 19 -14 23 -14 8 3 25 80 82 64 46 63 99 -2 99 -32 0 -41 7
-33 26 4 11 9 12 19 3 11 -9 14 -7 16 12 2 31 -2 73 -8 78 -2 2 -13 -4 -24
-14 -16 -14 -20 -15 -24 -4 -8 27 -3 50 11 45 7 -3 13 -1 13 5 0 5 -7 12 -15
15 -9 4 -15 20 -15 43 -1 20 -7 47 -15 61 -8 14 -14 33 -15 42 0 10 46 66 103
125 126 133 158 194 181 339 17 110 20 141 9 131 -5 -6 -10 -33 -14 -87 -1 -8
-6 -20 -11 -27 -5 -7 -7 -16 -4 -21 5 -9 -53 -7 -102 4 -23 5 -57 34 -97 85
-25 30 -74 69 -88 69 -6 0 -1 -10 11 -23 12 -13 22 -32 22 -43 0 -11 16 -43
35 -70 27 -38 32 -50 20 -52 -8 -2 -15 -10 -15 -19 0 -11 -7 -14 -22 -10 -13
3 -33 8 -46 11 -12 2 -27 8 -33 12 -7 4 -10 -1 -7 -12 2 -12 16 -22 39 -28 43
-10 69 -43 43 -53 -9 -3 -31 -1 -48 5 -17 6 -60 14 -95 17 -62 6 -121 27 -121
44 0 16 30 21 55 9 19 -9 34 -8 65 2 46 15 50 27 15 40 -27 10 -31 20 -14 37
7 7 4 16 -13 29 -13 11 -30 30 -38 43 -13 19 -25 24 -75 26 -33 2 -68 4 -78 5
-28 2 -16 33 16 44 20 7 34 7 47 -2 16 -10 23 -7 44 19 21 24 26 41 26 84 0
56 23 134 43 147 26 17 56 8 63 -17 3 -14 10 -25 15 -25 5 0 9 -12 9 -27 0
-36 6 -43 59 -81 42 -31 81 -39 115 -26 19 7 21 24 3 24 -7 0 -21 6 -31 13
-16 11 -15 15 13 46 28 32 51 35 51 7 0 -13 58 -31 68 -21 3 2 -1 11 -8 20
-10 12 -10 15 3 15 12 0 14 5 10 18 -10 26 -44 50 -80 57 -46 8 -50 23 -9 30
36 7 106 -10 106 -25 0 -5 8 -16 18 -26 16 -17 17 -16 23 12 6 32 -9 70 -38
96 -23 21 -170 31 -235 15 -61 -14 -98 -30 -98 -42 0 -5 -5 -2 -11 8 -6 10
-22 17 -39 17 -18 0 -42 11 -62 29 -18 15 -49 36 -68 46 -51 25 -70 45 -70 72
0 17 6 23 23 23 15 0 29 9 37 25 7 14 20 25 28 25 9 0 12 6 8 16 -3 9 1 31 10
50 16 34 16 34 -17 71 -38 45 -51 51 -104 52 -33 0 -48 -7 -87 -42z m62 -397
c12 -8 11 -10 -7 -10 -12 0 -25 5 -28 10 -8 13 15 13 35 0z m37 -57 c4 -11
-34 -39 -42 -31 -3 2 -2 14 2 26 6 24 33 27 40 5z m507 -24 c41 -32 31 -39
-24 -16 -27 11 -50 25 -50 29 0 16 48 8 74 -13z m-504 -24 c-7 -8 -24 -15 -38
-15 -25 0 -25 1 -6 15 10 8 27 15 38 15 15 0 16 -3 6 -15z m-8 -79 c29 -1 33
-5 36 -33 2 -23 -3 -35 -19 -47 -12 -8 -42 -34 -67 -57 -30 -29 -46 -39 -51
-30 -4 6 -15 9 -24 6 -12 -5 -17 2 -23 30 -4 25 -11 35 -23 34 -9 -1 -24 1
-33 5 -16 7 -16 10 5 27 21 18 21 19 3 34 -11 8 -16 20 -12 30 5 15 17 16 91
10 46 -4 99 -8 117 -9z m474 -386 c5 0 10 -8 12 -20 5 -29 -17 -25 -28 6 -12
31 -13 44 -1 26 4 -8 12 -13 17 -12z m-294 -54 c4 3 36 -2 72 -10 36 -9 72
-13 80 -10 16 6 33 -7 54 -44 16 -28 15 -53 -2 -77 -7 -11 -17 -36 -21 -55
-20 -90 -90 -149 -155 -130 -18 5 -37 7 -41 4 -5 -3 -9 6 -9 20 0 20 8 28 45
41 24 10 52 26 62 37 17 19 17 20 0 33 -9 7 -40 15 -67 19 -28 4 -50 10 -50
15 0 5 -34 32 -75 60 -73 51 -90 71 -60 71 8 0 15 6 15 14 0 20 15 23 84 15
33 -4 64 -5 68 -3z m304 -18 c-3 -13 -6 -29 -6 -36 0 -7 -4 -10 -10 -7 -17 11
-12 65 6 65 12 0 15 -6 10 -22z m-76 -182 c0 -7 -7 -19 -15 -26 -10 -9 -15 -9
-15 -1 0 6 5 11 11 11 6 0 9 7 5 15 -3 8 -1 15 4 15 6 0 10 -6 10 -14z m-324
-93 c-2 -2 -11 0 -20 3 -14 5 -15 9 -5 15 12 7 34 -10 25 -18z m-1189 -19 c-3
-3 -12 -4 -19 -1 -8 3 -5 6 6 6 11 1 17 -2 13 -5z m1361 -148 c-12 -25 -24
-44 -27 -43 -22 7 -90 -75 -128 -152 -25 -51 -24 -58 6 -40 22 15 26 13 35
-16 4 -13 -2 -29 -17 -45 -12 -14 -40 -47 -61 -74 -37 -45 -40 -47 -53 -30 -7
10 -13 35 -13 55 0 46 -23 87 -66 119 -18 14 -34 28 -34 33 0 9 34 9 44 0 3
-4 23 -12 43 -19 39 -14 63 -5 63 21 0 7 9 15 21 18 11 3 25 19 32 36 6 17 15
31 19 31 4 0 8 14 8 30 0 27 -3 30 -30 30 -19 0 -30 5 -30 14 0 22 26 37 72
41 24 2 61 10 83 18 57 22 57 22 33 -27z m57 -226 c3 -5 -1 -10 -9 -10 -9 0
-16 5 -16 10 0 6 4 10 9 10 6 0 13 -4 16 -10z m50 -58 c-13 -13 -23 22 -12 42
11 20 12 20 15 -7 2 -16 1 -32 -3 -35z m-55 18 c-8 -5 -17 -7 -19 -4 -3 3 1 9
9 14 8 5 17 7 19 4 3 -3 -1 -9 -9 -14z m-30 -10 c0 -5 -5 -10 -11 -10 -5 0 -7
5 -4 10 3 6 8 10 11 10 2 0 4 -4 4 -10z m-475 -80 c3 -5 -1 -10 -10 -10 -9 0
-13 5 -10 10 3 6 8 10 10 10 2 0 7 -4 10 -10z m366 -47 c-12 -20 -14 -14 -5
12 4 9 9 14 11 11 3 -2 0 -13 -6 -23z m142 -54 c10 -56 5 -125 -8 -122 -7 1
-11 -24 -11 -66 0 -56 -4 -71 -22 -89 -16 -16 -22 -18 -22 -7 0 26 -28 5 -32
-24 -3 -20 1 -32 14 -40 14 -9 18 -8 18 4 0 8 4 15 8 15 5 0 14 12 20 26 20
43 33 18 27 -54 -8 -95 -16 -145 -25 -157 -4 -5 3 -50 16 -100 24 -96 30 -170
14 -195 -8 -12 -10 -10 -10 10 0 21 -18 65 -21 50 0 -3 -2 -21 -5 -40 -2 -19
-11 -75 -19 -125 l-14 -90 6 150 c4 83 6 158 5 168 -1 9 -3 53 -4 97 -1 57 -6
81 -16 85 -8 3 -16 -3 -19 -15 -5 -19 -6 -20 -19 -3 -13 17 -14 16 -21 -6 -6
-23 -7 -24 -15 -5 -5 11 -5 1 -1 -26 3 -25 7 -57 8 -73 2 -32 15 -49 16 -21 1
10 2 34 2 53 2 43 27 55 28 14 2 -57 -3 -88 -18 -98 -12 -9 -13 -16 -4 -33 6
-11 8 -28 5 -36 -3 -9 -1 -16 5 -16 6 0 11 -10 11 -22 0 -17 -3 -19 -9 -10 -6
10 -10 4 -15 -18 -4 -20 -1 -39 8 -52 11 -15 12 -27 4 -51 -6 -18 -15 -36 -19
-42 -11 -11 -12 -28 -1 -22 10 7 13 -47 16 -283 1 -114 -2 -216 -7 -230 -10
-24 -10 -24 -20 13 -6 27 -6 42 2 50 8 8 6 16 -5 28 -18 20 -12 55 7 43 8 -4
9 0 4 15 -4 12 -2 27 3 34 7 8 6 25 -3 51 -8 22 -12 43 -9 47 2 4 -1 11 -7 15
-8 4 -10 -9 -8 -47 1 -30 1 -65 0 -79 -2 -21 -4 -19 -16 15 -19 57 -38 181
-30 203 3 12 -1 26 -10 36 -13 12 -18 55 -26 203 -6 104 -15 193 -20 198 -7 7
-9 2 -5 -15 3 -14 8 -72 10 -129 2 -76 1 -99 -7 -85 -6 10 -10 44 -9 76 2 52
0 58 -18 58 -11 0 -20 5 -20 11 0 5 4 8 9 4 18 -11 19 11 3 65 -14 51 -18 94
-13 145 10 87 -50 381 -99 493 -24 53 -20 68 4 18 9 -19 21 -38 26 -41 5 -3
17 -31 26 -61 18 -64 29 -71 21 -13 l-5 41 28 -29 c21 -20 27 -34 23 -50 -7
-29 13 -30 28 -1 l12 22 18 -23 c10 -12 29 -58 44 -103 20 -64 22 -84 13 -91
-10 -7 -10 -10 0 -14 6 -2 12 -15 12 -27 0 -12 6 -28 12 -34 10 -10 10 -15 -2
-22 -13 -9 -13 -11 -1 -19 31 -20 38 -2 40 107 0 59 -3 134 -9 166 -7 42 -6
63 1 73 11 12 7 17 -7 11 -3 -2 -15 14 -25 35 -15 29 -17 42 -9 57 6 11 15 20
20 20 6 0 10 9 10 20 0 21 34 45 50 35 6 -3 10 -31 10 -61 0 -30 2 -54 4 -54
2 0 11 -3 19 -6 12 -4 13 3 5 43 -10 53 3 108 24 101 7 -3 16 -24 21 -49z
m-2328 -18 c-7 -25 -25 -28 -25 -5 0 8 5 12 10 9 6 -3 10 2 10 11 0 10 3 15 6
11 3 -3 3 -15 -1 -26z m1795 11 c0 -13 -12 -22 -22 -16 -10 6 -1 24 13 24 5 0
9 -4 9 -8z m367 -26 c-9 -20 -15 -22 -26 -13 -12 10 -12 12 2 15 10 2 17 8 17
13 0 5 4 9 9 9 5 0 4 -11 -2 -24z m-331 -3 c4 -10 8 -20 9 -23 1 -3 12 -27 24
-54 19 -40 21 -50 10 -57 -11 -7 -11 -9 2 -9 10 0 20 -18 29 -52 17 -61 22
-127 9 -106 -5 7 -9 21 -9 31 0 25 -20 21 -21 -5 0 -17 -4 -13 -14 15 -8 21
-11 45 -8 54 4 11 3 14 -5 9 -7 -4 -12 -2 -12 6 0 7 -6 25 -14 39 -7 14 -16
43 -20 64 -4 20 -12 45 -18 55 -13 21 -4 50 16 50 7 0 17 -8 22 -17z m724
-103 c0 -5 -8 -10 -17 -10 -15 0 -16 2 -3 10 19 12 20 12 20 0z m-220 -22 c0
-18 -2 -20 -9 -8 -6 8 -7 18 -5 22 9 14 14 9 14 -14z m560 -28 c0 -5 -4 -10
-10 -10 -5 0 -10 5 -10 10 0 6 5 10 10 10 6 0 10 -4 10 -10z m-20 -30 c0 -5
-2 -10 -4 -10 -3 0 -8 5 -11 10 -3 6 -1 10 4 10 6 0 11 -4 11 -10z m23 -10
c-3 -12 -8 -19 -11 -16 -5 6 5 36 12 36 2 0 2 -9 -1 -20z m-3093 -275 c-7 -9
-15 -13 -19 -10 -3 3 1 10 9 15 21 14 24 12 10 -5z m-23 -47 c-3 -8 -6 -5 -6
6 -1 11 2 17 5 13 3 -3 4 -12 1 -19z m-20 -50 c-3 -8 -6 -5 -6 6 -1 11 2 17 5
13 3 -3 4 -12 1 -19z m1806 -176 c7 -6 56 -13 110 -17 l97 -7 0 -49 c0 -26 -3
-50 -7 -52 -18 -11 -663 123 -663 137 0 12 448 0 463 -12z m-1669 -76 c-3 -9
-10 -13 -15 -10 -5 3 -9 2 -9 -3 0 -4 -36 -37 -80 -73 -44 -36 -103 -93 -132
-127 -28 -35 -53 -61 -56 -59 -8 9 57 92 120 153 58 57 169 145 176 138 1 -1
0 -10 -4 -19z m2573 -9 c1 -26 0 -28 -7 -12 -11 26 -12 45 -2 45 4 0 8 -15 9
-33z m-2814 -67 c-3 -11 -9 -23 -14 -26 -10 -6 -12 29 -2 39 13 13 21 7 16
-13z m2807 11 c0 -6 -4 -13 -10 -16 -5 -3 -10 1 -10 9 0 9 5 16 10 16 6 0 10
-4 10 -9z m53 -49 c-3 -12 -9 -22 -14 -22 -14 0 -11 38 4 43 16 6 17 5 10 -21z
m-8 -74 c-3 -18 -9 -60 -12 -93 -8 -84 -25 -118 -19 -38 3 41 0 63 -7 66 -8 3
-6 11 6 24 9 11 17 32 17 46 0 15 5 27 11 27 8 0 9 -11 4 -32z m-2670 -198
c-8 -13 -66 -43 -71 -37 -5 5 55 45 69 46 5 1 5 -4 2 -9z m2632 -52 c-2 -13
-4 -5 -4 17 -1 22 1 32 4 23 2 -10 2 -28 0 -40z m-2717 7 c0 -2 -18 -14 -40
-25 -48 -25 -52 -20 -7 9 31 20 47 26 47 16z m2691 -145 c-9 -23 -10 -23 -10
11 -1 20 2 39 7 43 11 12 14 -27 3 -54z m302 -110 c3 -11 1 -20 -4 -20 -5 0
-9 9 -9 20 0 11 2 20 4 20 2 0 6 -9 9 -20z m-6 -72 c-3 -7 -5 -2 -5 12 0 14 2
19 5 13 2 -7 2 -19 0 -25z m-146 -98 c10 0 3 -58 -10 -93 -14 -35 -14 -40 0
-32 18 12 35 -25 33 -69 -2 -22 -3 -49 -3 -59 -1 -30 -18 -10 -26 30 -4 21
-10 40 -15 43 -4 3 -10 19 -11 35 -2 17 -8 33 -12 36 -5 4 1 16 13 27 17 16
21 28 17 50 -3 16 -8 43 -11 58 l-6 29 12 -27 c7 -16 15 -28 19 -28z m119 18
c0 -9 4 -8 10 2 14 22 12 -1 -4 -46 -7 -22 -11 -46 -9 -54 4 -13 3 -13 -6 0
-14 19 -14 110 -1 110 6 0 10 -6 10 -12z m-23 -170 c-3 -8 -6 -5 -6 6 -1 11 2
17 5 13 3 -3 4 -12 1 -19z m-10 -60 c-3 -8 -6 -5 -6 6 -1 11 2 17 5 13 3 -3 4
-12 1 -19z m-57 -87 c0 -12 -20 -25 -27 -18 -7 7 6 27 18 27 5 0 9 -4 9 -9z
m-2880 -37 c0 -3 -21 -15 -47 -26 -53 -23 -188 -120 -203 -146 -7 -13 -9 -14
-10 -3 0 25 102 115 170 148 63 31 90 39 90 27z m2907 -71 c-3 -10 -5 -4 -5
12 0 17 2 24 5 18 2 -7 2 -21 0 -30z m-47 -389 c0 -8 -4 -12 -10 -9 -5 3 -10
10 -10 16 0 5 5 9 10 9 6 0 10 -7 10 -16z"/>
<path d="M3520 3590 c-13 -8 -12 -10 3 -10 9 0 17 5 17 10 0 12 -1 12 -20 0z"/>
<path d="M3710 3570 c-13 -8 -12 -10 3 -10 9 0 17 5 17 10 0 12 -1 12 -20 0z"/>
<path d="M3700 2317 c0 -8 7 -20 15 -27 12 -10 15 -10 15 3 0 8 -7 20 -15 27
-12 10 -15 10 -15 -3z"/>
<path d="M3502 2075 c0 -16 2 -22 5 -12 2 9 2 23 0 30 -3 6 -5 -1 -5 -18z"/>
<path d="M3610 2010 c0 -5 5 -10 10 -10 6 0 10 5 10 10 0 6 -4 10 -10 10 -5 0
-10 -4 -10 -10z"/>
<path d="M3740 1970 c0 -5 7 -10 16 -10 8 0 12 5 9 10 -3 6 -10 10 -16 10 -5
0 -9 -4 -9 -10z"/>
<path d="M3570 1880 c0 -5 5 -10 10 -10 6 0 10 5 10 10 0 6 -4 10 -10 10 -5 0
-10 -4 -10 -10z"/>
<path d="M3070 4469 c0 -5 5 -7 10 -4 6 3 10 8 10 11 0 2 -4 4 -10 4 -5 0 -10
-5 -10 -11z"/>
<path d="M4146 4125 c-4 -14 -2 -33 3 -43 8 -13 10 -8 11 26 0 48 -5 54 -14
17z"/>
<path d="M3739 3820 l-24 -19 28 -1 c34 0 70 17 62 31 -10 15 -41 10 -66 -11z"/>
<path d="M1845 3120 c-3 -5 -1 -10 4 -10 6 0 11 5 11 10 0 6 -2 10 -4 10 -3 0
-8 -4 -11 -10z"/>
<path d="M1810 3100 c-13 -8 -12 -10 3 -10 9 0 17 5 17 10 0 12 -1 12 -20 0z"/>
<path d="M3957 2687 c-3 -8 -2 -20 3 -27 6 -10 11 -8 19 8 14 27 14 32 -3 32
-8 0 -16 -6 -19 -13z"/>
<path d="M4110 2650 c0 -5 5 -10 11 -10 5 0 7 5 4 10 -3 6 -8 10 -11 10 -2 0
-4 -4 -4 -10z"/>
<path d="M3920 2465 c0 -8 5 -15 10 -15 6 0 10 7 10 15 0 8 -4 15 -10 15 -5 0
-10 -7 -10 -15z"/>
<path d="M4110 2346 c0 -2 7 -6 15 -10 8 -3 15 -1 15 4 0 6 -7 10 -15 10 -8 0
-15 -2 -15 -4z"/>
<path d="M1120 1921 c0 -25 6 -27 13 -6 4 8 2 17 -3 20 -6 4 -10 -3 -10 -14z"/>
</g>
</svg>
