<svg width="14" height="14" viewBox="0 0 14 14" fill="none" xmlns="http://www.w3.org/2000/svg">
<path d="M13.9 0.1C13.8333 0.0333333 13.7333 0 13.6 0C13.3 0.0333333 6.3 1.23333 3.43333 4.1C1.23333 6.3 1.36667 8.76667 1.73333 10.2333L5.16667 7.9C5.33333 7.8 5.53333 8 5.36667 8.16667L0.1 13.4333C-0.0333333 13.5667 -0.0333333 13.7667 0.1 13.9C0.166667 13.9667 0.233333 14 0.333333 14C0.433333 14 0.5 13.9667 0.566667 13.9L2.63333 11.8333C3.06667 12.0333 4.13333 12.4667 5.5 12.4667C7.16667 12.4667 8.66667 11.8333 9.93333 10.5667C13 7.5 13.9667 0.666667 14 0.366667C14 0.266667 13.9667 0.166667 13.9 0.1Z" fill="#2D2D2D"/>
</svg>
