<svg width="11" height="14" viewBox="0 0 11 14" fill="none" xmlns="http://www.w3.org/2000/svg">
<path d="M10.5873 4.88209C10.2483 4.74826 9.86919 4.89586 9.68747 5.2324L8.16262 8.1144C8.06782 8.29354 7.85639 8.35582 7.69039 8.25352C7.52438 8.15121 7.46667 7.92306 7.56147 7.74393L10.289 2.59016C10.4681 2.26844 10.4078 1.85438 10.1457 1.60759C9.98811 1.46796 9.7815 1.41041 9.58099 1.45029C9.38048 1.49017 9.20645 1.62342 9.10536 1.81448L6.35882 7.0041C6.2975 7.11998 6.18354 7.19175 6.05988 7.19238C5.93621 7.19301 5.82164 7.12239 5.7593 7.00714C5.69697 6.89189 5.69635 6.74951 5.75767 6.63363L8.65718 1.15495C8.83773 0.832639 8.77727 0.416892 8.5139 0.16976C8.35626 0.0300312 8.14953 -0.0275436 7.94892 0.012412C7.74831 0.0523677 7.57424 0.185784 7.47322 0.377031L4.55572 5.89044C4.46092 6.06957 4.24949 6.13186 4.08349 6.02955C3.91749 5.92725 3.85977 5.6991 3.95457 5.51997L6.16744 1.3372C6.34563 1.0159 6.28532 0.603047 6.02416 0.356491C5.86652 0.216762 5.65979 0.159187 5.45918 0.199143C5.25857 0.239098 5.08451 0.372515 4.98348 0.563762L2.16254 5.97895C2.12589 6.04925 2.05155 6.0862 1.97822 6.07058C1.90489 6.05495 1.84914 5.99029 1.83999 5.91023L1.52852 3.22691C1.43407 2.8304 1.08805 2.56547 0.710025 2.60025C0.297518 2.65604 -0.00905676 3.03945 0.000204335 3.48796V9.6426C0.00565604 11.1762 0.769381 12.5899 2.00334 13.3507C4.01321 14.6473 6.6165 13.9414 7.81965 11.7736L10.9088 5.936C11.0061 5.75234 11.0266 5.5328 10.9653 5.33187C10.904 5.13095 10.7666 4.9675 10.5873 4.88209Z" fill="#2D2D2D"/>
</svg>
