<svg width="5" height="11" viewBox="0 0 5 11" fill="none" xmlns="http://www.w3.org/2000/svg">
<path d="M4.5072 8.84803V4.54636L3.04801 0.531466C2.92636 0.172367 2.56526 -0.0478067 2.19088 0.00885046C1.9728 0.0488447 1.78338 0.182997 1.67304 0.375591C1.5627 0.568185 1.54264 0.799673 1.61821 1.00842L3.52047 6.24363C3.54708 6.31725 3.52552 6.39969 3.4663 6.45079C3.40707 6.5019 3.32249 6.51106 3.25372 6.47381L1.40496 5.47197C0.982187 5.23294 0.447261 5.35491 0.169466 5.75369C-0.10833 6.15246 -0.0379782 6.69738 0.331955 7.01227L5 11C4.68084 10.3273 4.51264 9.59278 4.5072 8.84803Z" fill="#2D2D2D"/>
</svg>
